<?xml version="1.0" encoding="utf-8"?>
<!-- Generator: Adobe Illustrator 26.0.0, SVG Export Plug-In . SVG Version: 6.00 Build 0)  -->
<svg version="1.1" id="Calque_1" xmlns="http://www.w3.org/2000/svg" xmlns:xlink="http://www.w3.org/1999/xlink" x="0px" y="0px"
	 viewBox="0 0 2500 2500" style="enable-background:new 0 0 2500 2500;" xml:space="preserve">
<style type="text/css">
	.st0{fill:#AC572C;}
	.st1{fill:#FFFFFF;}
</style>
<circle id="background" class="st0" cx="1250" cy="1250" r="1050"/>
<path id="behance" class="st1" d="M941.7,774.1c45.5,0,86.4,4.1,124.1,11.9s69.3,21.2,95.7,39.3c26.4,18.1,47.1,42.4,62.1,72.4
	c14.5,30,22.2,67.8,22.2,111.7c0,48.1-10.9,87.9-32.6,120c-21.7,32.1-53.8,58.4-96.7,78.6c58.4,17.1,102.4,46.6,131.4,88.4
	c29,42.4,43.4,93.1,43.4,152.6c0,48.1-9.3,89.5-27.9,124.7c-18.6,35.2-44,63.6-75.5,85.9c-31.6,22.2-67.8,38.8-108.1,49.1
	c-40.9,10.9-82.8,16-124.7,16H493.8V773.1h447.9V774.1z M914.8,1159c37.2,0,67.8-8.8,92.1-26.4c23.8-17.6,36.2-46.6,36.2-86.4
	c0-22.2-4.1-40.3-11.9-54.8c-7.8-14-18.6-25.3-32.1-33.1c-13.4-7.8-28.4-13.4-46-16.6c-17.6-3.1-35.7-4.7-53.8-4.7h-196v222.4
	L914.8,1159L914.8,1159z M926.7,1562.9c19.7,0,39.3-2.1,58.4-6.2c18.6-4.1,35.2-10.9,49.1-20.2c14-9.3,25.3-22.2,34.1-37.8
	c8.3-16,12.9-36.2,12.9-61.6c0-48.6-14-83.8-41.4-104.5c-27.4-20.7-64.1-31.6-109.1-31.6H702.8v261.2L926.7,1562.9L926.7,1562.9z
	 M1554.1,1542.8c28.4,27.4,69.3,41.4,122.6,41.4c38.3,0,70.9-9.8,98.8-28.4c27.4-19.1,44.5-39.3,50.7-60.5h166.6
	c-26.4,82.8-67.8,141.7-122.6,177.4c-55.3,35.7-121.6,53.3-200.2,53.3c-54.3,0-102.9-8.8-146.4-25.9c-43.4-17.1-80.2-41.9-110.7-74
	c-30-32.1-53.8-70.3-69.8-114.8c-16.6-44.5-24.8-93.1-24.8-146.4c0-51.7,8.3-99.3,25.3-143.8c17.1-44.5,40.9-82.8,71.9-115.3
	c31-32.6,68.3-57.9,111.2-76.6c42.9-18.6,91-27.9,143.3-27.9c58.4,0,109.7,11.4,153.1,34.1c43.4,22.8,79.1,53.3,107.1,91.6
	c27.9,38.3,48.1,81.7,60.5,130.9c12.4,49.1,17.1,99.8,13.4,153.1h-497.1C1510.2,1470.9,1525.7,1515.3,1554.1,1542.8L1554.1,1542.8z
	 M1768.3,1180.7c-22.8-24.8-56.9-37.2-103.4-37.2c-30,0-55.3,5.2-75.5,15.5c-20.2,10.3-36.2,22.8-48.1,37.8
	c-11.9,15-20.2,31-25.3,48.1c-4.7,17.1-7.8,32.1-8.8,45.5h307.8C1806.6,1241.7,1790.5,1205.5,1768.3,1180.7L1768.3,1180.7z
	 M1475,822.2h384.8v106.6H1475V822.2z"/>
</svg>
