<?xml version="1.0" encoding="utf-8"?>
<!-- Generator: Adobe Illustrator 26.0.0, SVG Export Plug-In . SVG Version: 6.00 Build 0)  -->
<svg version="1.1" id="Camada_1" xmlns="http://www.w3.org/2000/svg" xmlns:xlink="http://www.w3.org/1999/xlink" x="0px" y="0px"
	 viewBox="0 0 595.3 841.9" style="enable-background:new 0 0 595.3 841.9;" xml:space="preserve">
<style type="text/css">
	.st0{fill:#AC572C;}
	.st1{fill:none;}
</style>
<symbol  id="instagram" viewBox="-81.2 -81.3 162.5 162.5">
	<path class="st0" d="M0,81.2c11.5,0,22.9,0.1,34.4,0c14.2-0.1,26.2-5.8,35.8-16.8c3-3.4,5.4-7.3,7.1-11.5c2.4-5.9,3.9-12,3.9-18.3
		c0-23.1,0.1-46.3,0-69.4c-0.1-14-5.8-25.7-16.3-35c-3.7-3.3-8-6-12.6-7.9c-5.8-2.3-11.7-3.6-17.7-3.6c-23.1,0-46.3,0-69.4,0
		c-7.7,0-15.4,1.9-22.1,5.8c-11.9,6.9-19.5,16.8-22.9,29.7c-1,3.7-1.4,7.5-1.4,11.3c0,22.9-0.1,45.8,0,68.7
		c0.1,13.4,5.2,24.7,14.8,34c6.8,6.5,14.9,10.5,24.1,12.2c2.8,0.5,5.6,0.7,8.5,0.7C-22.6,81.2-11.3,81.2,0,81.2L0,81.2z M0,68.7
		L0,68.7c-11.2,0-22.3,0-33.5,0c-4.7,0-9.4-0.8-13.8-2.6c-13.1-5.4-21.5-17.9-21.5-32c0-22.8,0-45.5,0-68.3c0-2.3,0.2-4.5,0.7-6.8
		c3.2-16.2,17.4-27.8,34-27.8c22.4,0,44.9,0,67.3,0c1.2,0,2.3,0,3.5,0.1c5.9,0.4,11.5,2.2,16.4,5.6c10.2,7,15.5,16.8,15.6,29.2
		c0.1,22.6,0,45.1,0,67.7c0,3.5-0.5,7-1.5,10.4C63,58.8,49.3,68.7,34.1,68.7C22.7,68.7,11.3,68.7,0,68.7z"/>
	<path class="st0" d="M-43.3,0.7c0.4,23.8,20.2,43.5,44.7,43c23.8-0.5,43.2-20.2,42.8-44.4C43.8-24.6,24.1-44.1,0-43.8
		S-43.7-23.7-43.3,0.7z M0.4-31.3c17.3,0,31.3,13.9,31.3,31.2c0,17.2-13.9,31.2-30.9,31.3C-16.7,31.3-30.8,17.4-30.8,0
		C-30.8-17.3-16.9-31.3,0.4-31.3z"/>
	<path class="st0" d="M50.4,56.2c3.5,0,6.3-2.8,6.3-6.3c0-3.4-2.8-6.2-6.2-6.2s-6.3,2.8-6.3,6.3C44.2,53.4,47,56.2,50.4,56.2z"/>
	<path class="st1" d="M0.4-31.3c-17.3,0-31.3,14-31.2,31.3c0,17.4,14.1,31.3,31.6,31.2c17-0.1,30.9-14.1,30.9-31.3
		C31.7-17.4,17.7-31.3,0.4-31.3z"/>
</symbol>
<g>
	<defs>
		<rect id="SVGID_1_" x="24.1" y="146" width="550" height="550"/>
	</defs>
	<clipPath id="SVGID_00000110450457117837430530000000878629668719455670_">
		<use xlink:href="#SVGID_1_"  style="overflow:visible;"/>
	</clipPath>
	<g transform="matrix(1 0 0 1 0 0)" style="clip-path:url(#SVGID_00000110450457117837430530000000878629668719455670_);">
		
			<use xlink:href="#instagram"  width="162.5" height="162.5" id="XMLID_00000084516598146399354210000016245312595897232773_" x="-81.2" y="-81.3" transform="matrix(3.3825 0 0 -3.3846 298.8673 420.8748)" style="overflow:visible;"/>
	</g>
</g>
</svg>
