<svg xmlns="http://www.w3.org/2000/svg" viewBox="0 0 512.93 109.14"><defs><style>.cls-1,.cls-4{fill:none;}.cls-2{isolation:isolate;}.cls-3{fill:#ad572c;}.cls-4{stroke:#ad572c;stroke-miterlimit:10;stroke-width:0.75px;}</style></defs><g id="Camada_2" data-name="Camada 2"><g id="Camada_1-2" data-name="Camada 1"><rect class="cls-1" width="511.54" height="44.62"/><g class="cls-2"><g class="cls-2"><path class="cls-3" d="M9.72,6.08H21.18c11.88,0,17,5.8,17,11.49,0,5-4,10-11,10.55C39.54,30.35,38,48,45.6,47.11a15.91,15.91,0,0,1-4.08.65c-11.1,0-9.24-17.3-17.76-19.7a27,27,0,0,1-7.86-2.17,20.78,20.78,0,0,0,5.7.82c7.2,0,10.86-4.51,10.86-9.26,0-5-4.2-10.32-12.72-10.44l-4.5.06v40H9.72Z"/><path class="cls-3" d="M71.7,34.8a11.12,11.12,0,0,0-9-4.75c-6.36,0-9.18,4.17-9.18,8.21,0,3.81,2.52,7.45,6.9,7.45,2.64,0,6.12-1.41,10.56-5-4,4.58-9.12,7-13.44,7A8.74,8.74,0,0,1,48.48,39c0-4.74,3.84-9.67,12.6-9.67A13.19,13.19,0,0,1,71.7,34V32.63c0-7.33.06-14.36-8.4-14.36-7.2,0-10.56,4.81-11.28,7.39a11.69,11.69,0,0,1,11.46-8.5C75,17.16,76.8,24.37,76.8,32.63v9.09c0,3.22,1,4.4,2.4,4.4a5.83,5.83,0,0,0,3.6-1.88A6.81,6.81,0,0,1,77,47.46c-2.76,0-5.28-1.7-5.28-5.57ZM52,26c0-.12.06-.24.06-.35C52,25.77,52,25.89,52,26Z"/><path class="cls-3" d="M110.16,28.88C108.72,23.08,104.94,18,99.48,18c-5.7,0-8.28,5.69-8.28,12,0,7.8,4,16.48,10.86,16.48,3.78,0,6.3-1.35,7.68-3.81C108.36,46.12,105.06,48,100,48c-10.14,0-14.4-7.74-14.4-15.42S89.88,17.16,100,17.16c5.64,0,9.06,2,11,4.92,1.62-.41,3.18-1.88,4.32-4.28v44h-5.16Z"/><path class="cls-3" d="M138.66,47.7c-13,0-13.5-9.38-13.5-17.47V17.8h5.1V31.28c0,6.22.48,14.89,8.94,14.89,5.34,0,7-2.4,7.62-3.81C146,45.82,142,47.7,138.66,47.7Zm8.7-29.9h5.16V41.72c0,3.22,1.08,4.4,2.4,4.4a5.83,5.83,0,0,0,3.6-1.88,6.91,6.91,0,0,1-5.88,3.22c-2.76,0-5.28-1.7-5.28-5.57Z"/><path class="cls-3" d="M186.12,24.78c0,4.45-4.8,9.73-16.26,12.19,8.22-3.22,11.22-7.91,11.22-11.78a6.67,6.67,0,0,0-6.66-6.8c-5.58,0-8,4.63-8,10.08,0,7.91,5.16,17.65,13.26,17.65,7.38,0,11.7-7.57,12-9.79C191,42,184.92,48,177.06,48c-10.68,0-15.78-7.5-15.78-15.42,0-10.43,7.32-15.24,14.46-15.24C182.16,17.33,186.12,20.73,186.12,24.78Z"/><path class="cls-3" d="M196.38,3.14h5.16v44h-5.16Z"/><path class="cls-3" d="M228.54,6.08H240c11.87,0,17,5.8,17,11.49,0,5-4,10-11.05,10.55,12.42,2.23,10.86,19.87,18.48,19a15.91,15.91,0,0,1-4.08.65c-11.1,0-9.23-17.3-17.75-19.7a27,27,0,0,1-7.86-2.17,20.78,20.78,0,0,0,5.7.82c7.2,0,10.85-4.51,10.85-9.26,0-5-4.19-10.32-12.71-10.44l-4.5.06v40h-5.52Z"/><path class="cls-3" d="M281.76,17.16c10.67,0,15.72,7.5,15.72,15.41S292.38,48,281.76,48,266,40.49,266,32.57,271.2,17.16,281.76,17.16ZM271.08,28.65c0,8.09,5.16,18.05,13.32,18.05,5.58,0,8-4.63,8-10.2,0-8.09-5.16-18.11-13.26-18.11C273.54,18.39,271.08,23.08,271.08,28.65Z"/><path class="cls-3" d="M309.23,30.05c0,7.8,4,16.48,10.87,16.48,3.77,0,6.29-1.35,7.67-3.81C326.39,46.12,323.1,48,318,48c-10.14,0-14.39-7.74-14.39-15.42S307.92,17.16,318,17.16c5.16,0,8.52,1.75,10.56,4.33V3.14h5.16v44h-5.16V30.64c-1.14-6.51-5-12.61-11-12.61C311.81,18,309.23,23.72,309.23,30.05Z"/><path class="cls-3" d="M343.5,17.8h5.16V47.11H343.5Zm15.65-1.47c2.88,0,4.26,1.53,4.26,3.05s-1.31,3-3.89,3c.05-2.63-1.15-3.81-2.83-3.81-2.21,0-5.21,2-7.38,5.57C351.11,19.74,355.26,16.33,359.15,16.33Z"/><path class="cls-3" d="M371.69,12.52c0-1.23-1.43-2.11-3.17-1.64a3.12,3.12,0,0,1,3.24-3.69,2.88,2.88,0,0,1,3.11,2.87c0,1.82-1.56,4-5.27,5C371.1,14.28,371.69,13.29,371.69,12.52Zm2.65,5.28V47.11h-5.16V17.8Z"/><path class="cls-3" d="M387.41,38.73c-1.26.12-2.52.06-2.52,1.64,0,6.22,27.24-2.75,27.24,10.79,0,7.62-8.28,10.73-16.2,10.73-8.22,0-13.56-4.52-13.56-8.92a6.11,6.11,0,0,1,2.46-4.74,6.52,6.52,0,0,0-2,4.63c0,4,4,7.85,11.46,7.85s13.08-2.87,13.08-8.26-6-5.16-12.06-5.16-12.06-.12-12.06-5.92C383.21,39.49,385.49,38.2,387.41,38.73Zm8.16-21.57c8.76,0,13,5.45,13,11.25s-4.26,11.26-13,11.26-13-5.51-13-11.26S386.87,17.16,395.57,17.16Zm-8,9.2c0,5.63,3.48,12.19,9.36,12.19,4.56,0,6.6-3.81,6.6-8.15,0-5.68-3.48-12.19-9.42-12.19C389.63,18.21,387.59,22,387.59,26.36Zm21.12-11.08a2.15,2.15,0,0,0-2.34-2.17,3,3,0,0,0-1.92.65,2.89,2.89,0,0,1,2.82-3.93,3.41,3.41,0,0,1,3.42,3.75c0,1.88-1.26,4.16-5,6.45C407.93,18.15,408.71,16.45,408.71,15.28Z"/><path class="cls-3" d="M431.33,47.7c-13,0-13.5-9.38-13.5-17.47V17.8h5.1V31.28c0,6.22.48,14.89,8.94,14.89,5.34,0,7-2.4,7.62-3.81C438.71,45.82,434.69,47.7,431.33,47.7ZM440,17.8h5.16V41.72c0,3.22,1.08,4.4,2.4,4.4a5.83,5.83,0,0,0,3.6-1.88,6.91,6.91,0,0,1-5.88,3.22c-2.76,0-5.28-1.7-5.28-5.57Z"/><path class="cls-3" d="M478.79,24.78c0,4.45-4.8,9.73-16.26,12.19,8.22-3.22,11.22-7.91,11.22-11.78a6.67,6.67,0,0,0-6.66-6.8c-5.58,0-8,4.63-8,10.08,0,7.91,5.16,17.65,13.26,17.65,7.38,0,11.7-7.57,12-9.79C483.71,42,477.59,48,469.73,48,459.05,48,454,40.49,454,32.57c0-10.43,7.32-15.24,14.46-15.24C474.83,17.33,478.79,20.73,478.79,24.78Z"/><path class="cls-3" d="M498.29,46.82c5.34,0,10.56-2.23,10.56-6.1,0-7.68-21.18-4.16-21.18-15.24,0-5.69,5.46-8.73,11.1-8.73,5.28,0,10.62,2.57,12,8.2-1.38-4.75-6.42-7-11-7s-8.64,2.11-8.64,6c0,7.73,21.84,3.81,21.84,15,0,6.28-6.42,9.21-12.9,9.21-7,0-14.1-3.4-13.44-9.79C486.29,44.18,492.41,46.82,498.29,46.82Z"/></g></g><rect class="cls-1" x="176.21" y="62.24" width="186.48" height="46.9"/><g class="cls-2"><path class="cls-3" d="M191.81,64.28a4.56,4.56,0,0,1,0,6.76,6.4,6.4,0,0,1-4.14,1.22h-4v4.48h-1V63.06h5A6.34,6.34,0,0,1,191.81,64.28Zm-.72,6.12a3.32,3.32,0,0,0,1.18-2.73,3.38,3.38,0,0,0-1.18-2.75,5.32,5.32,0,0,0-3.42-1h-4v7.4h4A5.32,5.32,0,0,0,191.09,70.4Z"/><path class="cls-3" d="M208.15,63.06V76.74h-1V70.23h-9.36v6.51h-1V63.06h1v6.29h9.36V63.06Z"/><path class="cls-3" d="M215.25,75.93a6.75,6.75,0,0,1-2.61-2.5,6.85,6.85,0,0,1,2.61-9.56A7.54,7.54,0,0,1,219,63a7.7,7.7,0,0,1,3.72.9,7,7,0,0,1,2.61,9.59,6.69,6.69,0,0,1-2.61,2.48,8.14,8.14,0,0,1-7.44,0Zm6.9-.8a5.87,5.87,0,0,0,3.06-5.23,6,6,0,0,0-.82-3.08,5.88,5.88,0,0,0-2.24-2.16,6.89,6.89,0,0,0-6.37,0,5.7,5.7,0,0,0-2.25,2.16,6.18,6.18,0,0,0,0,6.15,5.7,5.7,0,0,0,2.25,2.16,6.82,6.82,0,0,0,6.37,0Z"/><path class="cls-3" d="M232.27,64h-5v-.9h11.1V64h-5V76.74h-1Z"/><path class="cls-3" d="M242.87,75.93a6.75,6.75,0,0,1-2.61-2.5,6.85,6.85,0,0,1,2.61-9.56,7.54,7.54,0,0,1,3.72-.91,7.7,7.7,0,0,1,3.72.9,7,7,0,0,1,2.61,9.59,6.69,6.69,0,0,1-2.61,2.48,8.14,8.14,0,0,1-7.44,0Zm6.9-.8a5.87,5.87,0,0,0,3.06-5.23,6,6,0,0,0-.82-3.08,5.88,5.88,0,0,0-2.24-2.16,6.89,6.89,0,0,0-6.37,0,5.7,5.7,0,0,0-2.25,2.16,6.18,6.18,0,0,0,0,6.15,5.7,5.7,0,0,0,2.25,2.16,6.82,6.82,0,0,0,6.37,0Z"/><path class="cls-3" d="M267.41,70h1v5.12a6.27,6.27,0,0,1-2.23,1.31,8.78,8.78,0,0,1-2.77.44,7.76,7.76,0,0,1-3.75-.9A6.52,6.52,0,0,1,257,73.45a7.13,7.13,0,0,1,0-7.11,6.59,6.59,0,0,1,2.62-2.48,7.81,7.81,0,0,1,3.77-.9,8.08,8.08,0,0,1,2.83.48,6.16,6.16,0,0,1,2.21,1.39l-.64.67a5.37,5.37,0,0,0-2-1.24,7.13,7.13,0,0,0-2.41-.38,6.73,6.73,0,0,0-3.25.78,5.69,5.69,0,0,0-2.27,2.16,5.87,5.87,0,0,0-.82,3.08,5.76,5.76,0,0,0,.83,3.06,5.9,5.9,0,0,0,2.27,2.16,6.59,6.59,0,0,0,3.24.8,6.25,6.25,0,0,0,4-1.25Z"/><path class="cls-3" d="M282.59,76.74l-3.34-4.58a9.79,9.79,0,0,1-1.36.1h-4v4.48h-1V63.06h5A6.34,6.34,0,0,1,282,64.28a4.12,4.12,0,0,1,1.5,3.39,4.35,4.35,0,0,1-.85,2.72A4.53,4.53,0,0,1,280.25,72l3.5,4.79Zm-4.7-5.36a5.26,5.26,0,0,0,3.42-1,3.78,3.78,0,0,0,0-5.49,5.32,5.32,0,0,0-3.42-1h-4v7.42Z"/><path class="cls-3" d="M295.93,72.89h-8.12L286,76.74h-1.1l6.44-13.68h1l6.44,13.68h-1.1Zm-.38-.84-3.68-7.9-3.66,7.9Z"/><path class="cls-3" d="M310.53,64.28a4.56,4.56,0,0,1,0,6.76,6.4,6.4,0,0,1-4.14,1.22h-4v4.48h-1V63.06h5A6.34,6.34,0,0,1,310.53,64.28Zm-.72,6.12A3.32,3.32,0,0,0,311,67.67a3.38,3.38,0,0,0-1.18-2.75,5.32,5.32,0,0,0-3.42-1h-4v7.4h4A5.32,5.32,0,0,0,309.81,70.4Z"/><path class="cls-3" d="M326.87,63.06V76.74h-1V70.23h-9.36v6.51h-1V63.06h1v6.29h9.36V63.06Z"/><path class="cls-3" d="M336.07,72v4.71h-1V72l-5.64-9h1.12l5.06,8,5.06-8h1.06Z"/></g><line class="cls-3" x1="10.08" y1="69.54" x2="170.08" y2="69.54"/><line class="cls-4" x1="10.08" y1="69.54" x2="170.08" y2="69.54"/><line class="cls-3" x1="350.24" y1="69.54" x2="510.24" y2="69.54"/><line class="cls-4" x1="350.24" y1="69.54" x2="510.24" y2="69.54"/></g></g></svg>